<mxfile host="app.diagrams.net" modified="2023-07-14T12:04:37.034Z" agent="Mozilla/5.0 (Windows NT 10.0; Win64; x64; rv:109.0) Gecko/20100101 Firefox/115.0" version="21.3.8" etag="danyBaj1wSXO7PpZ8MVB" type="github">
  <diagram name="Page-1" id="UJo-nJQsVEa5i2UKfN2R">
    <mxGraphModel>
      <root>
        <mxCell id="0" />
        <mxCell id="1" parent="0" />
      </root>
    </mxGraphModel>
  </diagram>
</mxfile>
